<?xml version="1.0" standalone="no"?>
<!DOCTYPE svg PUBLIC "-//W3C//DTD SVG 20010904//EN"
 "http://www.w3.org/TR/2001/REC-SVG-20010904/DTD/svg10.dtd">
<svg version="1.0" xmlns="http://www.w3.org/2000/svg"
 width="99.000000pt" height="108.000000pt" viewBox="0 0 99.000000 108.000000"
 preserveAspectRatio="xMidYMid meet">

<g transform="translate(0.000000,108.000000) scale(0.100000,-0.100000)"
fill="#000000" stroke="none">
<path d="M1 788 c2 -272 3 -284 11 -168 8 100 15 140 39 199 44 110 107 189
182 228 l62 32 -147 1 -148 0 1 -292z"/>
<path d="M430 1070 c-47 -3 -105 -12 -129 -20 -110 -35 -205 -178 -216 -322
-4 -46 -3 -78 3 -78 9 0 23 -58 27 -115 1 -16 11 -47 23 -67 25 -48 31 -216 8
-249 -14 -21 -14 -21 -38 6 -12 14 -33 47 -45 73 l-21 47 4 -59 c2 -33 11 -71
20 -85 17 -26 17 -26 -3 -8 -17 15 -43 104 -57 197 -2 14 -4 -68 -5 -182 l-1
-208 494 2 495 1 0 538 1 539 -238 -2 c-130 -1 -275 -4 -322 -8z m250 -60
c116 -58 120 -61 145 -112 14 -29 20 -44 13 -34 -38 58 -87 99 -171 142 -51
26 -108 51 -127 55 -31 6 -32 7 -7 8 15 1 79 -25 147 -59z m-118 -71 c25 -11
68 -67 72 -93 1 -8 5 -18 8 -22 4 -3 3 -16 -2 -29 -5 -13 -6 -26 -2 -30 4 -4
8 -35 8 -70 1 -69 36 -181 62 -202 14 -11 12 -17 -13 -43 -16 -16 -37 -30 -46
-30 -24 0 -49 -11 -49 -21 0 -5 13 -6 29 -3 28 6 30 5 29 -27 0 -19 -9 -42
-19 -52 -20 -19 -90 -33 -116 -23 -14 6 -12 10 10 34 32 33 48 73 40 101 -9
36 -40 25 -66 -24 -8 -16 -25 -41 -36 -54 -26 -29 -27 -79 -3 -120 20 -37 32
-40 32 -8 0 40 136 77 168 45 15 -15 16 -58 2 -58 -5 0 -10 -7 -10 -15 0 -13
19 -20 44 -16 5 1 6 -5 2 -14 -3 -9 -2 -13 3 -10 5 3 12 1 16 -5 7 -11 -63
-87 -85 -92 -8 -2 -17 -6 -20 -9 -7 -9 -117 15 -165 37 -22 10 -44 17 -48 16
-5 -2 -6 2 -3 7 3 5 -7 14 -22 20 -38 16 -79 82 -92 150 -6 31 -19 93 -30 138
-24 99 -25 173 -5 273 22 102 35 142 57 162 10 9 18 20 18 25 0 11 78 56 110
64 41 11 97 10 122 -2z m333 -169 c19 -38 33 -70 30 -70 -2 0 -21 32 -40 70
-19 39 -33 70 -30 70 2 0 21 -31 40 -70z m65 -124 c0 -12 -5 -7 -19 24 -11 24
-11 24 3 6 9 -11 16 -24 16 -30z m7 -48 c-3 -7 -5 -2 -5 12 0 14 2 19 5 13 2
-7 2 -19 0 -25z m10 -65 c-3 -10 -5 -4 -5 12 0 17 2 24 5 18 2 -7 2 -21 0 -30z
m0 -265 c-3 -8 -6 -5 -6 6 -1 11 2 17 5 13 3 -3 4 -12 1 -19z m-20 -70 c-3 -8
-6 -5 -6 6 -1 11 2 17 5 13 3 -3 4 -12 1 -19z m-26 -51 l-24 -22 19 27 c10 14
21 24 23 22 3 -3 -6 -15 -18 -27z m-781 -23 c0 -7 -58 25 -65 36 -3 5 10 1 29
-11 20 -12 36 -23 36 -25z m733 -37 c-15 -19 -30 -32 -32 -30 -5 3 49 63 57
63 2 0 -9 -15 -25 -33z m-580 -4 c-13 -2 -33 -2 -45 0 -13 2 -3 4 22 4 25 0
35 -2 23 -4z m52 -11 c-3 -3 -11 0 -18 7 -9 10 -8 11 6 5 10 -3 15 -9 12 -12z
m72 -18 c-3 -3 -12 -4 -19 -1 -8 3 -5 6 6 6 11 1 17 -2 13 -5z m103 -29 c19
-7 28 -13 20 -13 -8 0 -31 6 -50 13 -19 7 -28 13 -20 13 8 0 31 -6 50 -13z
m275 -5 c-3 -5 -16 -10 -28 -9 -20 1 -20 2 3 9 14 4 26 8 28 9 2 1 0 -3 -3 -9z"/>
<path d="M390 695 c0 -6 8 -11 18 -12 37 -3 74 -23 68 -38 -3 -8 -1 -17 4 -20
5 -3 4 -18 -2 -35 -7 -21 -17 -30 -31 -30 -12 0 -28 -4 -35 -9 -18 -11 3 -19
72 -27 63 -8 76 4 79 70 2 31 9 50 22 59 10 8 15 19 12 24 -18 28 -207 44
-207 18z"/>
</g>
</svg>
